<mxfile host="65bd71144e">
    <diagram id="w_6E7Ul9n7j62YZ0FRHE" name="Page-1">
        <mxGraphModel dx="487" dy="1536" grid="1" gridSize="10" guides="1" tooltips="1" connect="1" arrows="1" fold="1" page="1" pageScale="1" pageWidth="850" pageHeight="1100" math="0" shadow="0">
            <root>
                <mxCell id="0"/>
                <mxCell id="1" parent="0"/>
                <mxCell id="10" style="edgeStyle=none;html=1;" parent="1" source="3" edge="1">
                    <mxGeometry relative="1" as="geometry">
                        <mxPoint x="120" y="69.99999999999977" as="targetPoint"/>
                    </mxGeometry>
                </mxCell>
                <mxCell id="3" value="Model barkodu okutulacak" style="rounded=1;whiteSpace=wrap;html=1;fillColor=#0B1D0B;" parent="1" vertex="1">
                    <mxGeometry x="60" y="-20" width="120" height="60" as="geometry"/>
                </mxCell>
                <mxCell id="12" style="edgeStyle=none;html=1;" parent="1" source="4" edge="1">
                    <mxGeometry relative="1" as="geometry">
                        <mxPoint x="120" y="239.99999999999977" as="targetPoint"/>
                    </mxGeometry>
                </mxCell>
                <mxCell id="4" value="Cihaza model bilgisi kayıt edilecek(Settings)" style="rounded=1;whiteSpace=wrap;html=1;fillColor=#081D0E;" parent="1" vertex="1">
                    <mxGeometry x="60" y="160" width="120" height="60" as="geometry"/>
                </mxCell>
                <mxCell id="11" style="edgeStyle=none;html=1;" parent="1" source="5" edge="1">
                    <mxGeometry relative="1" as="geometry">
                        <mxPoint x="120" y="159.99999999999977" as="targetPoint"/>
                    </mxGeometry>
                </mxCell>
                <mxCell id="5" value="Cihaza model bilgisi gönderirlecek" style="rounded=1;whiteSpace=wrap;html=1;fillColor=#081D0E;" parent="1" vertex="1">
                    <mxGeometry x="60" y="70" width="120" height="60" as="geometry"/>
                </mxCell>
                <mxCell id="13" style="edgeStyle=none;html=1;" parent="1" source="6" edge="1">
                    <mxGeometry relative="1" as="geometry">
                        <mxPoint x="115" y="320" as="targetPoint"/>
                    </mxGeometry>
                </mxCell>
                <mxCell id="6" value="Model bilgisinden faz, mid, 4g, Soket bilgisi alınacak" style="rounded=1;whiteSpace=wrap;html=1;fillColor=#081D0E;" parent="1" vertex="1">
                    <mxGeometry x="55" y="240" width="120" height="60" as="geometry"/>
                </mxCell>
                <mxCell id="14" style="edgeStyle=none;html=1;" parent="1" source="7" edge="1">
                    <mxGeometry relative="1" as="geometry">
                        <mxPoint x="115" y="410" as="targetPoint"/>
                    </mxGeometry>
                </mxCell>
                <mxCell id="7" value="Cihaza kayıt edilecek" style="rounded=1;whiteSpace=wrap;html=1;fillColor=#081D0E;" parent="1" vertex="1">
                    <mxGeometry x="55" y="320" width="120" height="60" as="geometry"/>
                </mxCell>
                <mxCell id="15" style="edgeStyle=none;html=1;" parent="1" source="8" edge="1">
                    <mxGeometry relative="1" as="geometry">
                        <mxPoint x="120" y="540" as="targetPoint"/>
                    </mxGeometry>
                </mxCell>
                <mxCell id="8" value="Eğer mid varsa Mid Sınıfı oluşturulacak. Mid yok ise şarj esnasında mid bakılmayacak." style="rounded=1;whiteSpace=wrap;html=1;fillColor=#081D0E;" parent="1" vertex="1">
                    <mxGeometry x="45" y="410" width="150" height="100" as="geometry"/>
                </mxCell>
                <mxCell id="19" style="edgeStyle=none;html=1;" parent="1" source="16" edge="1">
                    <mxGeometry relative="1" as="geometry">
                        <mxPoint x="120" y="640" as="targetPoint"/>
                    </mxGeometry>
                </mxCell>
                <mxCell id="16" value="4g var ise 4g ayağa kaldırma çalışacak, yok ise çalışmayacak" style="rounded=1;whiteSpace=wrap;html=1;fillColor=#081D0E;" parent="1" vertex="1">
                    <mxGeometry x="50" y="540" width="140" height="60" as="geometry"/>
                </mxCell>
                <mxCell id="17" value="Soket değişkeni güncelle" style="rounded=1;whiteSpace=wrap;html=1;fillColor=#081D0E;" parent="1" vertex="1">
                    <mxGeometry x="55" y="640" width="120" height="60" as="geometry"/>
                </mxCell>
                <mxCell id="20" value="" style="endArrow=none;html=1;" parent="1" edge="1">
                    <mxGeometry width="50" height="50" relative="1" as="geometry">
                        <mxPoint x="175" y="670" as="sourcePoint"/>
                        <mxPoint x="240" y="670" as="targetPoint"/>
                    </mxGeometry>
                </mxCell>
                <mxCell id="21" value="" style="endArrow=none;html=1;" parent="1" edge="1">
                    <mxGeometry width="50" height="50" relative="1" as="geometry">
                        <mxPoint x="240" y="670" as="sourcePoint"/>
                        <mxPoint x="240" as="targetPoint"/>
                    </mxGeometry>
                </mxCell>
                <mxCell id="22" value="" style="endArrow=classic;html=1;" parent="1" edge="1">
                    <mxGeometry width="50" height="50" relative="1" as="geometry">
                        <mxPoint x="240" as="sourcePoint"/>
                        <mxPoint x="300" as="targetPoint"/>
                    </mxGeometry>
                </mxCell>
                <mxCell id="24" style="edgeStyle=none;html=1;" parent="1" source="23" edge="1">
                    <mxGeometry relative="1" as="geometry">
                        <mxPoint x="360" y="69.99999999999977" as="targetPoint"/>
                    </mxGeometry>
                </mxCell>
                <mxCell id="23" value="Charge Point id barkodu okutulacak" style="rounded=1;whiteSpace=wrap;html=1;fillColor=#081D0E;" parent="1" vertex="1">
                    <mxGeometry x="300" y="-30" width="120" height="60" as="geometry"/>
                </mxCell>
                <mxCell id="26" style="edgeStyle=none;html=1;" parent="1" source="25" edge="1">
                    <mxGeometry relative="1" as="geometry">
                        <mxPoint x="360" y="159.99999999999977" as="targetPoint"/>
                    </mxGeometry>
                </mxCell>
                <mxCell id="25" value="Settings database kaydedilecek" style="rounded=1;whiteSpace=wrap;html=1;fillColor=#081D0E;" parent="1" vertex="1">
                    <mxGeometry x="300" y="70" width="120" height="60" as="geometry"/>
                </mxCell>
                <mxCell id="27" value="İlgili değişken güncellenecek" style="rounded=1;whiteSpace=wrap;html=1;fillColor=#081D0E;" parent="1" vertex="1">
                    <mxGeometry x="300" y="160" width="120" height="60" as="geometry"/>
                </mxCell>
                <mxCell id="28" value="" style="endArrow=none;html=1;" parent="1" edge="1">
                    <mxGeometry width="50" height="50" relative="1" as="geometry">
                        <mxPoint x="420" y="190" as="sourcePoint"/>
                        <mxPoint x="450" y="190" as="targetPoint"/>
                    </mxGeometry>
                </mxCell>
                <mxCell id="29" value="" style="endArrow=none;html=1;" parent="1" edge="1">
                    <mxGeometry width="50" height="50" relative="1" as="geometry">
                        <mxPoint x="450" y="190" as="sourcePoint"/>
                        <mxPoint x="450" as="targetPoint"/>
                    </mxGeometry>
                </mxCell>
                <mxCell id="30" value="" style="endArrow=classic;html=1;" parent="1" edge="1">
                    <mxGeometry width="50" height="50" relative="1" as="geometry">
                        <mxPoint x="450" as="sourcePoint"/>
                        <mxPoint x="500" as="targetPoint"/>
                    </mxGeometry>
                </mxCell>
                <mxCell id="32" style="edgeStyle=none;html=1;" parent="1" source="31" edge="1">
                    <mxGeometry relative="1" as="geometry">
                        <mxPoint x="670" as="targetPoint"/>
                    </mxGeometry>
                </mxCell>
                <mxCell id="31" value="Wifi mac adresi cihazdan alınacak" style="rounded=1;whiteSpace=wrap;html=1;fillColor=#081D0E;" parent="1" vertex="1">
                    <mxGeometry x="500" y="-30" width="120" height="60" as="geometry"/>
                </mxCell>
                <mxCell id="34" style="edgeStyle=none;html=1;" parent="1" source="33" edge="1">
                    <mxGeometry relative="1" as="geometry">
                        <mxPoint x="839.9999999999995" as="targetPoint"/>
                    </mxGeometry>
                </mxCell>
                <mxCell id="33" value="4G'li model ise 4G imei adresi alınacak" style="rounded=1;whiteSpace=wrap;html=1;fillColor=#FF0000;" parent="1" vertex="1">
                    <mxGeometry x="670" y="-30" width="120" height="60" as="geometry"/>
                </mxCell>
                <mxCell id="36" style="edgeStyle=none;html=1;" parent="1" source="35" edge="1">
                    <mxGeometry relative="1" as="geometry">
                        <mxPoint x="999.9999999999995" as="targetPoint"/>
                    </mxGeometry>
                </mxCell>
                <mxCell id="35" value="Ethernet mac adresi alınacak" style="rounded=1;whiteSpace=wrap;html=1;fillColor=#081D0E;" parent="1" vertex="1">
                    <mxGeometry x="840" y="-30" width="120" height="60" as="geometry"/>
                </mxCell>
                <mxCell id="38" style="edgeStyle=none;html=1;" parent="1" source="37" edge="1">
                    <mxGeometry relative="1" as="geometry">
                        <mxPoint x="1059.9999999999995" y="70" as="targetPoint"/>
                    </mxGeometry>
                </mxCell>
                <mxCell id="37" value="Cihazın Bluetooth adresi cp id ile değiştirilecek" style="rounded=1;whiteSpace=wrap;html=1;fillColor=#081D0E;" parent="1" vertex="1">
                    <mxGeometry x="1000" y="-30" width="120" height="60" as="geometry"/>
                </mxCell>
                <mxCell id="40" style="edgeStyle=none;html=1;" parent="1" source="39" edge="1">
                    <mxGeometry relative="1" as="geometry">
                        <mxPoint x="1059.9999999999995" y="170" as="targetPoint"/>
                    </mxGeometry>
                </mxCell>
                <mxCell id="39" value="Cihaza reset atılacak" style="rounded=1;whiteSpace=wrap;html=1;fillColor=#081D0E;" parent="1" vertex="1">
                    <mxGeometry x="1000" y="70" width="120" height="60" as="geometry"/>
                </mxCell>
                <mxCell id="42" style="edgeStyle=none;html=1;" parent="1" source="41" edge="1">
                    <mxGeometry relative="1" as="geometry">
                        <mxPoint x="1190" as="targetPoint"/>
                        <Array as="points">
                            <mxPoint x="1160" y="200"/>
                            <mxPoint x="1160"/>
                        </Array>
                    </mxGeometry>
                </mxCell>
                <mxCell id="41" value="Bluetooth gözüküyor mu kontrol ediniz ekranda çıkacak" style="rounded=1;whiteSpace=wrap;html=1;fillColor=#081D0E;" parent="1" vertex="1">
                    <mxGeometry x="1000" y="170" width="120" height="60" as="geometry"/>
                </mxCell>
                <mxCell id="44" style="edgeStyle=none;html=1;" parent="1" source="43" target="45" edge="1">
                    <mxGeometry relative="1" as="geometry">
                        <mxPoint x="1360" y="-10" as="targetPoint"/>
                    </mxGeometry>
                </mxCell>
                <mxCell id="43" value="Wifi AP bağlantısının olup olmadığını cihazdan alacak.&lt;br&gt;HCAC pw fzVqqccK1,3" style="rounded=1;whiteSpace=wrap;html=1;fillColor=#FF0000;" parent="1" vertex="1">
                    <mxGeometry x="1190" y="-60" width="120" height="100" as="geometry"/>
                </mxCell>
                <mxCell id="46" style="edgeStyle=none;html=1;" parent="1" source="45" target="47" edge="1">
                    <mxGeometry relative="1" as="geometry">
                        <mxPoint x="1540" y="-10" as="targetPoint"/>
                    </mxGeometry>
                </mxCell>
                <mxCell id="45" value="4g var ise sinyal gücünü cihazdan alacak" style="rounded=1;whiteSpace=wrap;html=1;fillColor=#FF0000;" parent="1" vertex="1">
                    <mxGeometry x="1370" y="-40" width="120" height="60" as="geometry"/>
                </mxCell>
                <mxCell id="48" style="edgeStyle=none;html=1;" parent="1" source="47" target="49" edge="1">
                    <mxGeometry relative="1" as="geometry">
                        <mxPoint x="1700" y="-10" as="targetPoint"/>
                    </mxGeometry>
                </mxCell>
                <mxCell id="47" value="Cihaza röle aç gönderilecek, sonucunda açılıp açılmadığının bilgisini dönecek" style="rounded=1;whiteSpace=wrap;html=1;" parent="1" vertex="1">
                    <mxGeometry x="1540" y="-50" width="120" height="80" as="geometry"/>
                </mxCell>
                <mxCell id="50" style="edgeStyle=none;html=1;" parent="1" source="49" target="51" edge="1">
                    <mxGeometry relative="1" as="geometry">
                        <mxPoint x="1860" y="-10" as="targetPoint"/>
                    </mxGeometry>
                </mxCell>
                <mxCell id="49" value="Mid var ise bağlantı olup olmadığının bilgisini alacak." style="rounded=1;whiteSpace=wrap;html=1;" parent="1" vertex="1">
                    <mxGeometry x="1700" y="-40" width="120" height="60" as="geometry"/>
                </mxCell>
                <mxCell id="52" style="edgeStyle=none;html=1;" parent="1" source="51" target="53" edge="1">
                    <mxGeometry relative="1" as="geometry">
                        <mxPoint x="2020" y="-10" as="targetPoint"/>
                    </mxGeometry>
                </mxCell>
                <mxCell id="51" value="Röle kapat gönderilecek sonucunda röle kapatılıp kapatılmadığının bilgisi dönecek" style="rounded=1;whiteSpace=wrap;html=1;" parent="1" vertex="1">
                    <mxGeometry x="1860" y="-65" width="120" height="110" as="geometry"/>
                </mxCell>
                <mxCell id="54" style="edgeStyle=none;html=1;" parent="1" source="53" target="55" edge="1">
                    <mxGeometry relative="1" as="geometry">
                        <mxPoint x="2180" y="-10" as="targetPoint"/>
                    </mxGeometry>
                </mxCell>
                <mxCell id="53" value="Kilit aç, sonucunu göster" style="rounded=1;whiteSpace=wrap;html=1;" parent="1" vertex="1">
                    <mxGeometry x="2020" y="-40" width="120" height="60" as="geometry"/>
                </mxCell>
                <mxCell id="59" style="edgeStyle=none;html=1;entryX=0;entryY=0.5;entryDx=0;entryDy=0;" parent="1" source="55" target="56" edge="1">
                    <mxGeometry relative="1" as="geometry"/>
                </mxCell>
                <mxCell id="55" value="Kilit kapat sonucunu göster" style="rounded=1;whiteSpace=wrap;html=1;" parent="1" vertex="1">
                    <mxGeometry x="2170" y="-40" width="120" height="60" as="geometry"/>
                </mxCell>
                <mxCell id="60" style="edgeStyle=none;html=1;entryX=0;entryY=0.5;entryDx=0;entryDy=0;" parent="1" source="56" target="57" edge="1">
                    <mxGeometry relative="1" as="geometry"/>
                </mxCell>
                <mxCell id="56" value="Led kırmızı yak, sonucunu dön, kullanıcı onaylasın" style="rounded=1;whiteSpace=wrap;html=1;" parent="1" vertex="1">
                    <mxGeometry x="2320" y="-40" width="120" height="60" as="geometry"/>
                </mxCell>
                <mxCell id="61" style="edgeStyle=none;html=1;entryX=0;entryY=0.5;entryDx=0;entryDy=0;" parent="1" source="57" target="58" edge="1">
                    <mxGeometry relative="1" as="geometry"/>
                </mxCell>
                <mxCell id="57" value="Led yeşil yak, sonucunu dön, kullanıcı onaylasın" style="rounded=1;whiteSpace=wrap;html=1;" parent="1" vertex="1">
                    <mxGeometry x="2470" y="-40" width="120" height="60" as="geometry"/>
                </mxCell>
                <mxCell id="63" style="edgeStyle=none;html=1;entryX=0;entryY=0.5;entryDx=0;entryDy=0;" parent="1" source="58" target="62" edge="1">
                    <mxGeometry relative="1" as="geometry"/>
                </mxCell>
                <mxCell id="58" value="Led mavi yak, sonucunu dön, kullanıcı onaylasın" style="rounded=1;whiteSpace=wrap;html=1;" parent="1" vertex="1">
                    <mxGeometry x="2620" y="-40" width="120" height="60" as="geometry"/>
                </mxCell>
                <mxCell id="65" style="edgeStyle=none;html=1;" parent="1" source="62" target="66" edge="1">
                    <mxGeometry relative="1" as="geometry">
                        <mxPoint x="2830" y="40" as="targetPoint"/>
                    </mxGeometry>
                </mxCell>
                <mxCell id="62" value="Ekranda master kart okut yazacak" style="rounded=1;whiteSpace=wrap;html=1;" parent="1" vertex="1">
                    <mxGeometry x="2770" y="-40" width="120" height="60" as="geometry"/>
                </mxCell>
                <mxCell id="67" style="edgeStyle=none;html=1;" parent="1" source="66" edge="1">
                    <mxGeometry relative="1" as="geometry">
                        <mxPoint x="2830" y="120" as="targetPoint"/>
                    </mxGeometry>
                </mxCell>
                <mxCell id="66" value="Cihaza master kart olarak db'ye kayıt edilir" style="rounded=1;whiteSpace=wrap;html=1;" parent="1" vertex="1">
                    <mxGeometry x="2770" y="40" width="120" height="60" as="geometry"/>
                </mxCell>
                <mxCell id="69" style="edgeStyle=none;html=1;" parent="1" source="68" target="70" edge="1">
                    <mxGeometry relative="1" as="geometry">
                        <mxPoint x="2830" y="200" as="targetPoint"/>
                    </mxGeometry>
                </mxCell>
                <mxCell id="68" value="Kayıt anındaki db kopyalanır ve farklı dosyaya kayıt edilir" style="rounded=1;whiteSpace=wrap;html=1;" parent="1" vertex="1">
                    <mxGeometry x="2770" y="120" width="120" height="60" as="geometry"/>
                </mxCell>
                <mxCell id="71" style="edgeStyle=none;html=1;" parent="1" source="70" edge="1">
                    <mxGeometry relative="1" as="geometry">
                        <mxPoint x="2950" as="targetPoint"/>
                        <Array as="points">
                            <mxPoint x="2920" y="255"/>
                            <mxPoint x="2920"/>
                        </Array>
                    </mxGeometry>
                </mxCell>
                <mxCell id="70" value="hergangi bi anda master kart okutulursa diğer dosyadan db alınarak çalışan dosyaya yapıştırılır. reboot edilir." style="rounded=1;whiteSpace=wrap;html=1;" parent="1" vertex="1">
                    <mxGeometry x="2765" y="200" width="130" height="110" as="geometry"/>
                </mxCell>
                <mxCell id="73" style="edgeStyle=none;html=1;" parent="1" source="72" edge="1">
                    <mxGeometry relative="1" as="geometry">
                        <mxPoint x="3010" y="60" as="targetPoint"/>
                    </mxGeometry>
                </mxCell>
                <mxCell id="72" value="Arayüzde bir slave kart okutunuz gösterilir." style="rounded=1;whiteSpace=wrap;html=1;" parent="1" vertex="1">
                    <mxGeometry x="2950" y="-30" width="120" height="60" as="geometry"/>
                </mxCell>
                <mxCell id="80" style="edgeStyle=none;html=1;entryX=0.5;entryY=0;entryDx=0;entryDy=0;" parent="1" source="74" target="75" edge="1">
                    <mxGeometry relative="1" as="geometry"/>
                </mxCell>
                <mxCell id="74" value="Kart database kayıt edilir." style="rounded=1;whiteSpace=wrap;html=1;" parent="1" vertex="1">
                    <mxGeometry x="2950" y="60" width="120" height="60" as="geometry"/>
                </mxCell>
                <mxCell id="76" style="edgeStyle=none;html=1;" parent="1" source="75" edge="1">
                    <mxGeometry relative="1" as="geometry">
                        <mxPoint x="3120" as="targetPoint"/>
                        <Array as="points">
                            <mxPoint x="3100" y="170"/>
                            <mxPoint x="3100"/>
                        </Array>
                    </mxGeometry>
                </mxCell>
                <mxCell id="75" value="Returnde kaydedilen kart gönderilir" style="rounded=1;whiteSpace=wrap;html=1;" parent="1" vertex="1">
                    <mxGeometry x="2950" y="140" width="120" height="60" as="geometry"/>
                </mxCell>
                <mxCell id="81" style="edgeStyle=none;html=1;entryX=0.5;entryY=0;entryDx=0;entryDy=0;" parent="1" source="77" target="78" edge="1">
                    <mxGeometry relative="1" as="geometry"/>
                </mxCell>
                <mxCell id="77" value="Arayüzde ikinci slave kart okutunuz gösterilir." style="rounded=1;whiteSpace=wrap;html=1;" parent="1" vertex="1">
                    <mxGeometry x="3120" y="-30" width="120" height="60" as="geometry"/>
                </mxCell>
                <mxCell id="82" style="edgeStyle=none;html=1;entryX=0.51;entryY=-0.055;entryDx=0;entryDy=0;entryPerimeter=0;" parent="1" source="78" target="79" edge="1">
                    <mxGeometry relative="1" as="geometry"/>
                </mxCell>
                <mxCell id="78" value="Kart database kayıt edilir." style="rounded=1;whiteSpace=wrap;html=1;" parent="1" vertex="1">
                    <mxGeometry x="3120" y="60" width="120" height="60" as="geometry"/>
                </mxCell>
                <mxCell id="84" style="edgeStyle=none;html=1;" parent="1" source="79" edge="1">
                    <mxGeometry relative="1" as="geometry">
                        <mxPoint x="3280" as="targetPoint"/>
                        <Array as="points">
                            <mxPoint x="3260" y="170"/>
                            <mxPoint x="3260"/>
                        </Array>
                    </mxGeometry>
                </mxCell>
                <mxCell id="79" value="Returnde kaydedilen kart gönderilir" style="rounded=1;whiteSpace=wrap;html=1;" parent="1" vertex="1">
                    <mxGeometry x="3120" y="140" width="120" height="60" as="geometry"/>
                </mxCell>
                <mxCell id="86" style="edgeStyle=none;html=1;" parent="1" source="85" target="87" edge="1">
                    <mxGeometry relative="1" as="geometry">
                        <mxPoint x="3380" y="130" as="targetPoint"/>
                    </mxGeometry>
                </mxCell>
                <mxCell id="85" value="SAP sistemine wifi mac, eth mac, cpid, 4g imei gönderilecek. returnde seri no alınacak." style="rounded=1;whiteSpace=wrap;html=1;" parent="1" vertex="1">
                    <mxGeometry x="3280" y="-30" width="200" height="120" as="geometry"/>
                </mxCell>
                <mxCell id="88" style="edgeStyle=none;html=1;" parent="1" source="87" edge="1">
                    <mxGeometry relative="1" as="geometry">
                        <mxPoint x="3530" as="targetPoint"/>
                        <Array as="points">
                            <mxPoint x="3500" y="180"/>
                            <mxPoint x="3500"/>
                        </Array>
                    </mxGeometry>
                </mxCell>
                <mxCell id="87" value="cmps urline&amp;nbsp;{ “brand” : “Hera”,&amp;nbsp; &quot;model&quot;: &quot;Chargepack“,&amp;nbsp; &quot;serial_number&quot;: &quot;asdf&quot;,“code” : “HCAC1”, &quot;tokens&quot;:[ “737373”, “626363”]} bilgiler gönderilecek" style="rounded=1;whiteSpace=wrap;html=1;" parent="1" vertex="1">
                    <mxGeometry x="3285" y="120" width="190" height="120" as="geometry"/>
                </mxCell>
                <mxCell id="90" style="edgeStyle=none;html=1;" parent="1" source="89" target="91" edge="1">
                    <mxGeometry relative="1" as="geometry">
                        <mxPoint x="3720" as="targetPoint"/>
                    </mxGeometry>
                </mxCell>
                <mxCell id="89" value="Boot notification gönderilecek, accept olduğuna bakılacak" style="rounded=1;whiteSpace=wrap;html=1;" parent="1" vertex="1">
                    <mxGeometry x="3530" y="-40" width="160" height="80" as="geometry"/>
                </mxCell>
                <mxCell id="92" style="edgeStyle=none;html=1;" parent="1" source="91" target="93" edge="1">
                    <mxGeometry relative="1" as="geometry">
                        <mxPoint x="3790" y="60" as="targetPoint"/>
                    </mxGeometry>
                </mxCell>
                <mxCell id="91" value="Plug and charge modunda max 6 amper ayarlanacak" style="rounded=1;whiteSpace=wrap;html=1;" parent="1" vertex="1">
                    <mxGeometry x="3730" y="-30" width="120" height="60" as="geometry"/>
                </mxCell>
                <mxCell id="94" style="edgeStyle=none;html=1;" parent="1" source="93" target="95" edge="1">
                    <mxGeometry relative="1" as="geometry">
                        <mxPoint x="3790" y="140" as="targetPoint"/>
                    </mxGeometry>
                </mxCell>
                <mxCell id="93" value="Arayüzde kullanıcıya kabloyu takın denilecek." style="rounded=1;whiteSpace=wrap;html=1;" parent="1" vertex="1">
                    <mxGeometry x="3730" y="50" width="120" height="60" as="geometry"/>
                </mxCell>
                <mxCell id="96" style="edgeStyle=none;html=1;" parent="1" source="95" edge="1">
                    <mxGeometry relative="1" as="geometry">
                        <mxPoint x="3790" y="270" as="targetPoint"/>
                    </mxGeometry>
                </mxCell>
                <mxCell id="95" value="Kullanıcı şarja başladığında arayüzde (Şarj kablosu soketi aşırı zorlanmadan soketten çıkarılmaya çalışılır ve çıkmadığından emin olunur. )&lt;br&gt;" style="rounded=1;whiteSpace=wrap;html=1;" parent="1" vertex="1">
                    <mxGeometry x="3710" y="135" width="160" height="110" as="geometry"/>
                </mxCell>
                <mxCell id="98" style="edgeStyle=none;html=1;" parent="1" source="97" edge="1">
                    <mxGeometry relative="1" as="geometry">
                        <mxPoint x="3790" y="420" as="targetPoint"/>
                    </mxGeometry>
                </mxCell>
                <mxCell id="97" value="20 saniye sonra akım otomatik olarak sistem tarafından 6A in %25 'i üzerine çıkarılır." style="rounded=1;whiteSpace=wrap;html=1;" parent="1" vertex="1">
                    <mxGeometry x="3710" y="270" width="160" height="110" as="geometry"/>
                </mxCell>
                <mxCell id="100" style="edgeStyle=none;html=1;" parent="1" source="99" target="101" edge="1">
                    <mxGeometry relative="1" as="geometry">
                        <mxPoint x="3790" y="510" as="targetPoint"/>
                    </mxGeometry>
                </mxCell>
                <mxCell id="99" value="Cihazın enerjiyi kesip hata konumuna geçtiği gözlemlenir." style="rounded=1;whiteSpace=wrap;html=1;" parent="1" vertex="1">
                    <mxGeometry x="3730" y="420" width="120" height="60" as="geometry"/>
                </mxCell>
                <mxCell id="102" style="edgeStyle=none;html=1;" parent="1" source="101" target="103" edge="1">
                    <mxGeometry relative="1" as="geometry">
                        <mxPoint x="3790" y="650" as="targetPoint"/>
                    </mxGeometry>
                </mxCell>
                <mxCell id="101" value="30 saniye sonra sistem tarafından otomatik olarak 6A'in altına düşürülen akım sayesinde otomatik olarak şarj durumuna geri dönülmesi beklenmekte." style="rounded=1;whiteSpace=wrap;html=1;" parent="1" vertex="1">
                    <mxGeometry x="3710" y="510" width="160" height="110" as="geometry"/>
                </mxCell>
                <mxCell id="104" style="edgeStyle=none;html=1;" parent="1" source="103" target="105" edge="1">
                    <mxGeometry relative="1" as="geometry">
                        <mxPoint x="3790" y="740" as="targetPoint"/>
                    </mxGeometry>
                </mxCell>
                <mxCell id="103" value="Tekrar şarj işlemine dönen cihaz 6A çekmeye devam eder." style="rounded=1;whiteSpace=wrap;html=1;" parent="1" vertex="1">
                    <mxGeometry x="3730" y="650" width="120" height="60" as="geometry"/>
                </mxCell>
                <mxCell id="106" style="edgeStyle=none;html=1;" parent="1" source="105" target="107" edge="1">
                    <mxGeometry relative="1" as="geometry">
                        <mxPoint x="3790" y="840" as="targetPoint"/>
                    </mxGeometry>
                </mxCell>
                <mxCell id="105" value="Sistem tarafından otomatik olarak 30mA üzerinde kaçak akım oluşturulur." style="rounded=1;whiteSpace=wrap;html=1;" parent="1" vertex="1">
                    <mxGeometry x="3725" y="740" width="130" height="70" as="geometry"/>
                </mxCell>
                <mxCell id="109" style="edgeStyle=none;html=1;entryX=0.439;entryY=0;entryDx=0;entryDy=0;entryPerimeter=0;" parent="1" source="107" target="108" edge="1">
                    <mxGeometry relative="1" as="geometry"/>
                </mxCell>
                <mxCell id="107" value="Ürünün enerjiyi kesip hata konumuna geçtiği gözlemlenir." style="rounded=1;whiteSpace=wrap;html=1;" parent="1" vertex="1">
                    <mxGeometry x="3730" y="830" width="120" height="60" as="geometry"/>
                </mxCell>
                <mxCell id="110" style="edgeStyle=none;html=1;" parent="1" source="108" target="111" edge="1">
                    <mxGeometry relative="1" as="geometry">
                        <mxPoint x="3802.5" y="1070" as="targetPoint"/>
                    </mxGeometry>
                </mxCell>
                <mxCell id="108" value="kaçak akım algılandıktan sonra oparetör tarafından sarjın sonlandıgı ve ledin mor&amp;nbsp; yanıp söndügü görülür. Oparatör şarj test işlemi bitti. Kabloyu çıkartır. Test Bitti Butonuna basar." style="rounded=1;whiteSpace=wrap;html=1;" parent="1" vertex="1">
                    <mxGeometry x="3700" y="920" width="205" height="120" as="geometry"/>
                </mxCell>
                <mxCell id="112" style="edgeStyle=none;html=1;" parent="1" source="111" target="113" edge="1">
                    <mxGeometry relative="1" as="geometry">
                        <mxPoint x="3802.5" y="1160" as="targetPoint"/>
                    </mxGeometry>
                </mxCell>
                <mxCell id="111" value="etiket çıktısı oluşturulur. Cihaza yapıştırılır.&amp;nbsp;" style="rounded=1;whiteSpace=wrap;html=1;" parent="1" vertex="1">
                    <mxGeometry x="3742.5" y="1070" width="120" height="60" as="geometry"/>
                </mxCell>
                <mxCell id="113" value="Stop butonuna basılarak enerji kesilir ve ürün test masasından ayrılır." style="rounded=1;whiteSpace=wrap;html=1;" parent="1" vertex="1">
                    <mxGeometry x="3733.75" y="1150" width="137.5" height="70" as="geometry"/>
                </mxCell>
            </root>
        </mxGraphModel>
    </diagram>
</mxfile>